<?xml version="1.0" encoding="UTF-8"?>
<svg xmlns="http://www.w3.org/2000/svg" xmlns:xlink="http://www.w3.org/1999/xlink" width="100pt" height="15.75pt" viewBox="0 0 100 15.75" version="1.1">
<defs>
<clipPath id="clip1">
  <path d="M 0 0 L 16 0 L 16 15.75 L 0 15.75 Z M 0 0 "/>
</clipPath>
</defs>
<g id="surface1">
<g clip-path="url(#clip1)" clip-rule="nonzero">
<path style=" stroke:none;fill-rule:nonzero;fill:rgb(95.698547%,46.299744%,12.5%);fill-opacity:1;" d="M 6.53125 0.113281 C 8.347656 -0.199219 10.273438 0.132813 11.859375 1.074219 C 13.265625 1.894531 14.40625 3.160156 15.070313 4.644531 C 15.507813 5.625 15.765625 6.699219 15.75 7.78125 C 15.824219 10.113281 14.734375 12.433594 12.945313 13.921875 C 11.855469 14.84375 10.507813 15.457031 9.09375 15.671875 C 8.496094 15.773438 7.886719 15.75 7.285156 15.742188 C 5.625 15.628906 4.011719 14.953125 2.75 13.867188 C 1.546875 12.84375 0.667969 11.449219 0.261719 9.921875 C 0.140625 9.484375 0.078125 9.035156 0.0195313 8.585938 C -0.00390625 8.023438 -0.0234375 7.453125 0.0585938 6.894531 C 0.261719 5.183594 1.058594 3.558594 2.269531 2.339844 C 3.414063 1.179688 4.921875 0.382813 6.53125 0.113281 "/>
</g>
<path style=" stroke:none;fill-rule:nonzero;fill:rgb(100%,100%,100%);fill-opacity:1;" d="M 7.238281 1.433594 C 8.632813 1.292969 10.074219 1.617188 11.269531 2.359375 C 12.6875 3.222656 13.75 4.652344 14.15625 6.265625 C 14.515625 7.652344 14.394531 9.160156 13.816406 10.472656 C 13.238281 11.800781 12.203125 12.925781 10.921875 13.601563 C 9.800781 14.199219 8.5 14.457031 7.238281 14.324219 C 5.519531 14.167969 3.890625 13.273438 2.816406 11.921875 C 1.804688 10.667969 1.292969 9.019531 1.417969 7.410156 C 1.511719 6.039063 2.0625 4.707031 2.957031 3.667969 C 4.023438 2.410156 5.59375 1.589844 7.238281 1.433594 "/>
<path style=" stroke:none;fill-rule:nonzero;fill:rgb(95.698547%,46.299744%,12.5%);fill-opacity:1;" d="M 4.273438 4.460938 C 5.011719 4.339844 5.785156 4.859375 5.933594 5.59375 C 6.125 6.324219 5.652344 7.136719 4.929688 7.34375 C 4.515625 7.46875 4.046875 7.410156 3.683594 7.171875 C 3.160156 6.84375 2.890625 6.160156 3.054688 5.5625 C 3.191406 4.992188 3.695313 4.542969 4.273438 4.460938 "/>
<path style=" stroke:none;fill-rule:nonzero;fill:rgb(95.698547%,46.299744%,12.5%);fill-opacity:1;" d="M 10.894531 4.464844 C 11.660156 4.316406 12.472656 4.875 12.601563 5.648438 C 12.800781 6.503906 12.070313 7.433594 11.179688 7.398438 C 10.390625 7.457031 9.671875 6.753906 9.664063 5.96875 C 9.632813 5.253906 10.1875 4.578125 10.894531 4.464844 "/>
<path style=" stroke:none;fill-rule:nonzero;fill:rgb(10.998535%,10.998535%,10.998535%);fill-opacity:1;" d="M 49.46875 9.527344 C 49.28125 9.523438 49.089844 9.539063 48.902344 9.511719 C 48.777344 9.472656 48.761719 9.335938 48.765625 9.226563 C 48.769531 7.320313 48.765625 5.417969 48.769531 3.515625 C 48.765625 3.253906 48.789063 2.957031 48.617188 2.738281 C 48.421875 2.488281 48.070313 2.488281 47.785156 2.484375 C 47.371094 2.503906 46.957031 2.453125 46.546875 2.519531 C 46.546875 2.617188 46.550781 2.71875 46.550781 2.820313 C 46.546875 3.132813 46.550781 3.445313 46.550781 3.753906 C 46.773438 3.761719 47.003906 3.738281 47.21875 3.800781 C 47.300781 3.980469 47.277344 4.175781 47.28125 4.363281 C 47.277344 6.195313 47.28125 8.03125 47.277344 9.863281 C 47.273438 10.082031 47.273438 10.3125 47.390625 10.507813 C 47.476563 10.671875 47.664063 10.726563 47.828125 10.785156 C 48.378906 10.792969 48.925781 10.789063 49.472656 10.789063 C 49.472656 10.367188 49.476563 9.949219 49.46875 9.527344 "/>
<path style=" stroke:none;fill-rule:nonzero;fill:rgb(10.998535%,10.998535%,10.998535%);fill-opacity:1;" d="M 80.484375 9.523438 C 80.308594 9.527344 80.136719 9.535156 79.964844 9.519531 C 79.84375 9.515625 79.769531 9.386719 79.78125 9.28125 C 79.777344 8.476563 79.78125 7.675781 79.777344 6.875 C 79.78125 6.429688 79.695313 5.976563 79.488281 5.578125 C 79.273438 5.167969 78.867188 4.878906 78.421875 4.773438 C 77.742188 4.613281 76.988281 4.675781 76.398438 5.0625 C 76.074219 5.261719 75.824219 5.554688 75.628906 5.882813 C 75.695313 5.203125 75.644531 4.515625 75.660156 3.832031 C 75.640625 3.476563 75.726563 3.085938 75.53125 2.765625 C 75.382813 2.535156 75.089844 2.503906 74.839844 2.488281 C 74.382813 2.480469 73.925781 2.496094 73.46875 2.480469 C 73.402344 2.902344 73.457031 3.332031 73.4375 3.757813 C 73.664063 3.761719 73.898438 3.734375 74.117188 3.808594 C 74.144531 3.902344 74.171875 4 74.167969 4.097656 C 74.167969 6.328125 74.167969 8.558594 74.167969 10.792969 C 74.664063 10.789063 75.164063 10.792969 75.660156 10.789063 C 75.65625 9.839844 75.65625 8.890625 75.660156 7.945313 C 75.65625 7.488281 75.785156 7.027344 76.070313 6.671875 C 76.382813 6.269531 76.894531 6.03125 77.402344 6.050781 C 77.65625 6.054688 77.933594 6.136719 78.089844 6.355469 C 78.261719 6.597656 78.292969 6.90625 78.296875 7.195313 C 78.296875 8.101563 78.300781 9.007813 78.296875 9.917969 C 78.304688 10.125 78.304688 10.355469 78.429688 10.53125 C 78.554688 10.710938 78.785156 10.785156 78.996094 10.789063 C 79.5 10.792969 80.003906 10.789063 80.507813 10.789063 C 80.492188 10.367188 80.53125 9.945313 80.484375 9.523438 "/>
<path style=" stroke:none;fill-rule:nonzero;fill:rgb(10.998535%,10.998535%,10.998535%);fill-opacity:1;" d="M 23.464844 8.480469 C 23.363281 8.820313 23.195313 9.152344 22.910156 9.375 C 22.53125 9.667969 22 9.761719 21.550781 9.585938 C 21.191406 9.457031 20.917969 9.152344 20.765625 8.804688 C 20.535156 8.285156 20.519531 7.6875 20.652344 7.136719 C 20.761719 6.671875 21.078125 6.230469 21.539063 6.0625 C 21.972656 5.90625 22.492188 5.945313 22.867188 6.226563 C 23.152344 6.4375 23.347656 6.757813 23.441406 7.097656 C 23.566406 7.546875 23.566406 8.027344 23.464844 8.480469 Z M 23.929688 5.183594 C 23.347656 4.734375 22.5625 4.609375 21.847656 4.742188 C 21.300781 4.847656 20.789063 5.164063 20.484375 5.636719 C 20.480469 5.453125 20.503906 5.246094 20.390625 5.089844 C 20.253906 4.886719 19.992188 4.835938 19.769531 4.828125 C 19.316406 4.824219 18.859375 4.828125 18.40625 4.828125 C 18.402344 5.25 18.40625 5.671875 18.40625 6.09375 C 18.597656 6.101563 18.796875 6.074219 18.988281 6.113281 C 19.136719 6.160156 19.117188 6.328125 19.117188 6.449219 C 19.117188 8.617188 19.121094 10.789063 19.117188 12.957031 C 19.105469 13.03125 19.128906 13.148438 19.230469 13.132813 C 19.683594 13.132813 20.140625 13.128906 20.597656 13.132813 C 20.59375 12.132813 20.621094 11.136719 20.585938 10.136719 C 20.988281 10.644531 21.632813 10.945313 22.28125 10.917969 C 23.097656 10.960938 23.910156 10.5625 24.402344 9.910156 C 24.992188 9.128906 25.125 8.089844 24.992188 7.140625 C 24.886719 6.390625 24.539063 5.652344 23.929688 5.183594 "/>
<path style=" stroke:none;fill-rule:nonzero;fill:rgb(10.998535%,10.998535%,10.998535%);fill-opacity:1;" d="M 29.640625 7.046875 C 28.878906 7.042969 28.117188 7.046875 27.355469 7.042969 C 27.4375 6.617188 27.695313 6.207031 28.089844 6.007813 C 28.511719 5.789063 29.066406 5.753906 29.453125 6.054688 C 29.757813 6.28125 29.894531 6.65625 29.941406 7.015625 C 29.839844 7.03125 29.742188 7.046875 29.640625 7.046875 Z M 28.84375 4.695313 C 27.992188 4.667969 27.117188 4.996094 26.550781 5.644531 C 25.941406 6.316406 25.71875 7.265625 25.792969 8.15625 C 25.867188 8.785156 26.109375 9.398438 26.527344 9.878906 C 27.121094 10.570313 28.042969 10.945313 28.949219 10.917969 C 29.835938 10.949219 30.71875 10.605469 31.386719 10.027344 C 31.175781 9.6875 30.96875 9.347656 30.765625 9.003906 C 30.375 9.304688 29.929688 9.558594 29.433594 9.632813 C 28.855469 9.734375 28.210938 9.582031 27.792969 9.15625 C 27.503906 8.867188 27.355469 8.46875 27.304688 8.070313 C 28.675781 8.066406 30.046875 8.066406 31.417969 8.070313 C 31.527344 7.171875 31.375 6.1875 30.753906 5.492188 C 30.28125 4.957031 29.550781 4.683594 28.84375 4.695313 "/>
<path style=" stroke:none;fill-rule:nonzero;fill:rgb(10.998535%,10.998535%,10.998535%);fill-opacity:1;" d="M 36.863281 9.078125 C 36.285156 9.757813 35.167969 9.855469 34.476563 9.300781 C 33.777344 8.761719 33.601563 7.722656 33.976563 6.949219 C 34.222656 6.410156 34.765625 6.027344 35.355469 5.964844 C 35.855469 5.910156 36.386719 6.074219 36.75 6.433594 C 37.46875 7.101563 37.507813 8.34375 36.863281 9.078125 Z M 37.964844 5.65625 C 36.832031 4.507813 34.867188 4.375 33.558594 5.300781 C 32.867188 5.789063 32.410156 6.570313 32.300781 7.40625 C 32.28125 7.675781 32.28125 7.941406 32.300781 8.207031 C 32.390625 8.816406 32.632813 9.414063 33.054688 9.867188 C 33.667969 10.554688 34.59375 10.941406 35.515625 10.917969 C 36.289063 10.949219 37.074219 10.699219 37.683594 10.214844 C 38.417969 9.644531 38.84375 8.707031 38.808594 7.78125 C 38.828125 6.996094 38.507813 6.21875 37.964844 5.65625 "/>
<path style=" stroke:none;fill-rule:nonzero;fill:rgb(10.998535%,10.998535%,10.998535%);fill-opacity:1;" d="M 44.316406 8.914063 C 44.160156 9.210938 43.898438 9.457031 43.582031 9.574219 C 43.128906 9.757813 42.570313 9.6875 42.199219 9.359375 C 41.855469 9.0625 41.675781 8.617188 41.621094 8.175781 C 41.582031 7.695313 41.597656 7.183594 41.828125 6.742188 C 42.003906 6.386719 42.328125 6.113281 42.714844 6.011719 C 43.105469 5.925781 43.542969 5.96875 43.871094 6.207031 C 44.25 6.476563 44.460938 6.925781 44.53125 7.375 C 44.605469 7.890625 44.574219 8.445313 44.316406 8.914063 Z M 44.882813 5.128906 C 44.308594 4.722656 43.5625 4.617188 42.878906 4.738281 C 42.332031 4.847656 41.816406 5.164063 41.511719 5.640625 C 41.5 5.453125 41.527344 5.246094 41.414063 5.085938 C 41.277344 4.886719 41.019531 4.835938 40.792969 4.828125 C 40.34375 4.824219 39.886719 4.828125 39.433594 4.828125 C 39.429688 5.25 39.433594 5.671875 39.433594 6.09375 C 39.628906 6.101563 39.824219 6.074219 40.019531 6.113281 C 40.164063 6.15625 40.140625 6.328125 40.144531 6.445313 C 40.144531 8.675781 40.144531 10.902344 40.144531 13.128906 C 40.636719 13.128906 41.132813 13.132813 41.625 13.132813 C 41.625 12.132813 41.648438 11.136719 41.613281 10.136719 C 41.84375 10.417969 42.144531 10.644531 42.484375 10.777344 C 42.863281 10.933594 43.28125 10.9375 43.683594 10.90625 C 44.5 10.828125 45.242188 10.304688 45.640625 9.589844 C 46.0625 8.832031 46.140625 7.925781 46.007813 7.078125 C 45.890625 6.320313 45.519531 5.578125 44.882813 5.128906 "/>
<path style=" stroke:none;fill-rule:nonzero;fill:rgb(10.998535%,10.998535%,10.998535%);fill-opacity:1;" d="M 51.6875 7.042969 C 51.773438 6.632813 52.003906 6.238281 52.378906 6.03125 C 52.792969 5.800781 53.347656 5.746094 53.75 6.027344 C 54.082031 6.253906 54.246094 6.65625 54.265625 7.042969 C 53.40625 7.042969 52.542969 7.042969 51.6875 7.042969 Z M 53.765625 4.75 C 52.996094 4.609375 52.164063 4.71875 51.492188 5.132813 C 50.859375 5.511719 50.425781 6.164063 50.230469 6.867188 C 50.128906 7.3125 50.078125 7.777344 50.144531 8.238281 C 50.238281 9.066406 50.683594 9.863281 51.371094 10.34375 C 51.953125 10.761719 52.675781 10.941406 53.386719 10.925781 C 54.238281 10.914063 55.078125 10.589844 55.71875 10.03125 C 55.511719 9.6875 55.304688 9.347656 55.097656 9.003906 C 54.722656 9.296875 54.292969 9.539063 53.820313 9.625 C 53.238281 9.738281 52.582031 9.601563 52.152344 9.175781 C 51.847656 8.890625 51.6875 8.480469 51.636719 8.070313 C 53.007813 8.0625 54.382813 8.070313 55.753906 8.066406 C 55.816406 7.355469 55.777344 6.601563 55.417969 5.964844 C 55.089844 5.335938 54.464844 4.882813 53.765625 4.75 "/>
<path style=" stroke:none;fill-rule:nonzero;fill:rgb(10.998535%,10.998535%,10.998535%);fill-opacity:1;" d="M 85.726563 9.007813 C 85.34375 9.5 84.675781 9.75 84.0625 9.636719 C 83.519531 9.558594 83.035156 9.191406 82.792969 8.699219 C 82.554688 8.222656 82.53125 7.648438 82.703125 7.140625 C 82.90625 6.527344 83.480469 6.039063 84.132813 5.96875 C 84.648438 5.898438 85.199219 6.078125 85.570313 6.445313 C 86.253906 7.097656 86.308594 8.273438 85.726563 9.007813 Z M 86.285156 5.257813 C 85.335938 4.625 84.078125 4.523438 83.027344 4.941406 C 82.273438 5.238281 81.640625 5.839844 81.332031 6.589844 C 80.914063 7.597656 81.042969 8.832031 81.71875 9.699219 C 82.328125 10.5 83.339844 10.9375 84.335938 10.925781 C 84.703125 10.925781 85.066406 10.878906 85.414063 10.78125 C 85.960938 10.601563 86.472656 10.304688 86.851563 9.871094 C 87.613281 9.046875 87.816406 7.792969 87.445313 6.742188 C 87.234375 6.140625 86.8125 5.613281 86.285156 5.257813 "/>
<path style=" stroke:none;fill-rule:nonzero;fill:rgb(10.998535%,10.998535%,10.998535%);fill-opacity:1;" d="M 100 4.769531 C 99.023438 4.605469 98.078125 5.355469 97.851563 6.285156 C 97.820313 5.9375 97.882813 5.585938 97.796875 5.242188 C 97.710938 4.96875 97.410156 4.835938 97.140625 4.828125 C 96.65625 4.824219 96.171875 4.828125 95.6875 4.828125 C 95.683594 5.25 95.6875 5.671875 95.6875 6.09375 C 95.914063 6.101563 96.15625 6.058594 96.367188 6.15625 C 96.394531 6.269531 96.414063 6.382813 96.414063 6.5 C 96.410156 7.929688 96.414063 9.359375 96.410156 10.789063 C 96.902344 10.789063 97.390625 10.792969 97.878906 10.789063 C 97.878906 10.335938 97.878906 9.882813 97.878906 9.433594 C 97.886719 8.828125 97.847656 8.21875 97.976563 7.625 C 98.082031 7.117188 98.390625 6.640625 98.859375 6.40625 C 99.207031 6.214844 99.613281 6.1875 100 6.222656 C 99.996094 5.738281 100.003906 5.253906 100 4.769531 "/>
<path style=" stroke:none;fill-rule:nonzero;fill:rgb(10.998535%,10.998535%,10.998535%);fill-opacity:1;" d="M 61.855469 8.207031 C 61.808594 8.910156 61.523438 9.632813 60.953125 10.070313 C 60.328125 10.558594 59.375 10.59375 58.734375 10.117188 C 58.15625 9.6875 57.867188 8.964844 57.789063 8.265625 C 57.742188 7.59375 57.792969 6.878906 58.132813 6.28125 C 58.394531 5.792969 58.882813 5.433594 59.429688 5.332031 C 59.929688 5.230469 60.480469 5.316406 60.902344 5.609375 C 61.34375 5.917969 61.625 6.40625 61.757813 6.921875 C 61.878906 7.339844 61.867188 7.777344 61.855469 8.207031 Z M 61.046875 5.09375 C 60.550781 4.8125 59.96875 4.769531 59.414063 4.835938 C 58.710938 4.949219 58.0625 5.402344 57.78125 6.066406 C 57.773438 5.839844 57.796875 5.609375 57.765625 5.382813 C 57.730469 5.171875 57.554688 4.996094 57.34375 4.96875 C 57.070313 4.929688 56.792969 4.9375 56.519531 4.957031 C 56.519531 5.101563 56.519531 5.25 56.523438 5.398438 C 56.742188 5.398438 56.964844 5.394531 57.1875 5.410156 C 57.355469 5.632813 57.265625 5.921875 57.273438 6.175781 C 57.296875 7.226563 57.246094 8.28125 57.289063 9.332031 C 57.246094 9.792969 57.320313 10.253906 57.277344 10.714844 C 57.296875 11.230469 57.257813 11.746094 57.277344 12.261719 C 57.300781 12.550781 57.242188 12.84375 57.300781 13.132813 C 57.460938 13.128906 57.621094 13.128906 57.78125 13.132813 C 57.78125 11.976563 57.789063 10.820313 57.777344 9.667969 C 57.976563 10.136719 58.363281 10.519531 58.828125 10.730469 C 59.242188 10.929688 59.71875 10.941406 60.171875 10.902344 C 60.777344 10.828125 61.34375 10.5 61.722656 10.019531 C 62.347656 9.234375 62.476563 8.164063 62.34375 7.195313 C 62.234375 6.359375 61.808594 5.507813 61.046875 5.09375 "/>
<path style=" stroke:none;fill-rule:nonzero;fill:rgb(10.998535%,10.998535%,10.998535%);fill-opacity:1;" d="M 63.988281 7.328125 C 64.058594 6.949219 64.171875 6.574219 64.394531 6.253906 C 64.722656 5.742188 65.28125 5.394531 65.878906 5.300781 C 66.347656 5.246094 66.855469 5.273438 67.265625 5.542969 C 67.867188 5.917969 68.121094 6.648438 68.144531 7.328125 C 66.761719 7.328125 65.375 7.332031 63.988281 7.328125 Z M 66.726563 4.835938 C 65.988281 4.738281 65.207031 4.890625 64.601563 5.34375 C 63.824219 5.90625 63.429688 6.886719 63.441406 7.832031 C 63.414063 8.695313 63.742188 9.582031 64.394531 10.164063 C 65.125 10.835938 66.195313 11.0625 67.152344 10.84375 C 67.664063 10.726563 68.136719 10.46875 68.535156 10.128906 C 68.449219 9.988281 68.359375 9.851563 68.269531 9.710938 C 67.445313 10.5 66.097656 10.691406 65.121094 10.082031 C 64.335938 9.617188 63.945313 8.683594 63.957031 7.796875 C 65.515625 7.792969 67.074219 7.792969 68.628906 7.796875 C 68.738281 6.996094 68.527344 6.125 67.984375 5.515625 C 67.664063 5.144531 67.199219 4.929688 66.726563 4.835938 "/>
<path style=" stroke:none;fill-rule:nonzero;fill:rgb(10.998535%,10.998535%,10.998535%);fill-opacity:1;" d="M 95.207031 9.523438 C 95.015625 9.523438 94.820313 9.542969 94.628906 9.515625 C 94.503906 9.472656 94.484375 9.335938 94.488281 9.222656 C 94.488281 7.757813 94.492188 6.292969 94.488281 4.828125 C 93.992188 4.824219 93.5 4.832031 93.003906 4.824219 C 92.996094 5.6875 93.003906 6.550781 93.003906 7.410156 C 93.019531 7.929688 92.914063 8.472656 92.613281 8.90625 C 92.265625 9.429688 91.5625 9.699219 90.957031 9.511719 C 90.636719 9.410156 90.464844 9.066406 90.441406 8.746094 C 90.390625 8.355469 90.410156 7.960938 90.40625 7.570313 C 90.40625 6.890625 90.40625 6.214844 90.40625 5.539063 C 90.40625 5.367188 90.375 5.1875 90.261719 5.054688 C 90.117188 4.886719 89.886719 4.832031 89.671875 4.828125 C 89.1875 4.828125 88.703125 4.828125 88.214844 4.828125 C 88.210938 5.25 88.214844 5.671875 88.214844 6.09375 C 88.445313 6.101563 88.683594 6.0625 88.902344 6.15625 C 88.960938 6.390625 88.9375 6.632813 88.941406 6.871094 C 88.941406 7.496094 88.941406 8.121094 88.941406 8.742188 C 88.949219 9.277344 89.042969 9.839844 89.375 10.269531 C 89.667969 10.660156 90.152344 10.867188 90.628906 10.90625 C 91.027344 10.933594 91.441406 10.933594 91.816406 10.789063 C 92.351563 10.59375 92.816406 10.195313 93.0625 9.679688 C 93.070313 9.929688 93.019531 10.195313 93.121094 10.429688 C 93.234375 10.679688 93.519531 10.789063 93.777344 10.789063 C 94.253906 10.792969 94.730469 10.785156 95.210938 10.792969 C 95.207031 10.367188 95.214844 9.949219 95.207031 9.523438 "/>
<path style=" stroke:none;fill-rule:nonzero;fill:rgb(10.998535%,10.998535%,10.998535%);fill-opacity:1;" d="M 71.738281 5.164063 C 71.269531 5.46875 70.964844 5.972656 70.796875 6.5 C 70.800781 6.140625 70.828125 5.785156 70.800781 5.429688 C 70.785156 5.234375 70.65625 5.050781 70.46875 4.992188 C 70.175781 4.914063 69.867188 4.953125 69.566406 4.945313 C 69.566406 5.09375 69.566406 5.246094 69.570313 5.398438 C 69.757813 5.402344 69.945313 5.390625 70.132813 5.40625 C 70.269531 5.417969 70.332031 5.574219 70.320313 5.695313 C 70.320313 7.394531 70.320313 9.09375 70.320313 10.789063 C 70.484375 10.789063 70.648438 10.789063 70.808594 10.789063 C 70.808594 9.964844 70.8125 9.136719 70.808594 8.3125 C 70.804688 7.738281 70.90625 7.160156 71.136719 6.632813 C 71.328125 6.203125 71.613281 5.789063 72.042969 5.574219 C 72.335938 5.410156 72.671875 5.386719 72.996094 5.417969 C 72.996094 5.253906 72.996094 5.09375 72.992188 4.929688 C 72.566406 4.867188 72.105469 4.914063 71.738281 5.164063 "/>
</g>
</svg>
